PathFileType	4	(X/Y/Z)	s04c0302.trc
DataRate	CameraRate	NumFrames	NumMarkers	Units	OrigDataRate	OrigDataStartFrame	OrigNumFrames
200	200	6	50	mm	200	500	2000
Frame#	Time	racr			lacr			c7			jug			rlel			rdr			llel			ldr			s2			lic			ric			lasi			rasi			rpsi			lpsi			rgt			lgt			rth1			rth2			rth3			rth4			rlfc			rmfc			rsh1			rsh2			rsh3			rsh4			rlmal			rmmal			rcal			rtoe			rmt5			lth1			lth2			lth4			lth3			llfc			lmfc			lsh1			lsh2			lsh3			lsh4			llmal			lmmal			lcal			ltoe			lmt5			SBIKE			LBIKE			RBIKE			
		X1	Y1	Z1	X2	Y2	Z2	X3	Y3	Z3	X4	Y4	Z4	X5	Y5	Z5	X6	Y6	Z6	X7	Y7	Z7	X8	Y8	Z8	X9	Y9	Z9	X10	Y10	Z10	X11	Y11	Z11	X12	Y12	Z12	X13	Y13	Z13	X14	Y14	Z14	X15	Y15	Z15	X16	Y16	Z16	X17	Y17	Z17	X18	Y18	Z18	X19	Y19	Z19	X20	Y20	Z20	X21	Y21	Z21	X22	Y22	Z22	X23	Y23	Z23	X24	Y24	Z24	X25	Y25	Z25	X26	Y26	Z26	X27	Y27	Z27	X28	Y28	Z28	X29	Y29	Z29	X30	Y30	Z30	X31	Y31	Z31	X32	Y32	Z32	X33	Y33	Z33	X34	Y34	Z34	X35	Y35	Z35	X36	Y36	Z36	X37	Y37	Z37	X38	Y38	Z38	X39	Y39	Z39	X40	Y40	Z40	X41	Y41	Z41	X42	Y42	Z42	X43	Y43	Z43	X44	Y44	Z44	X45	Y45	Z45	X46	Y46	Z46	X47	Y47	Z47	X48	Y48	Z48	X49	Y49	Z49	X50	Y50	Z50	
500	2.5000	814.732037	1378.784969	-106.102222	822.865407	1387.898424	-419.687124	824.888019	1458.420274	-269.610441	784.955513	1308.536263	-274.621963	589.191143	1157.038304	5.940977	707.967657	922.202374	-107.561682	643.278901	1172.857491	-543.652626	701.577367	901.259832	-472.948561	239.791900	1319.069517	-325.971475	414.545969	1257.525311	-452.788236	364.744781	1333.590875	-149.088199	430.585531	1207.426985	-394.083650	406.855815	1268.333330	-181.599267	269.553128	1365.762840	-288.931313	284.006357	1346.497397	-361.417539	321.921230	1291.063959	-124.509836	325.863440	1174.101755	-468.700740	419.459451	1155.688147	-102.047628	487.188923	1099.579083	-109.134002	520.165744	1021.145596	-110.903397	513.862559	1120.863676	-128.098583	589.926605	894.299855	-134.039847	570.790051	879.637154	-247.404906	498.988340	811.287736	-111.824852	449.547419	735.524911	-127.211332	371.049819	701.219245	-132.867271	472.925014	715.041225	-149.833183	267.194287	593.353005	-139.505071	287.914576	590.280357	-225.409586	189.291828	594.521994	-178.107998	453.794021	454.511173	-163.008198	383.573678	462.998507	-107.416533	320.579212	1090.191620	-479.436486	342.955543	1006.336642	-480.571129	378.015870	1006.628204	-471.360776	319.798578	920.466466	-484.011810	300.614079	749.306649	-469.129224	322.058361	714.603715	-360.643200	248.680131	626.653722	-490.911796	237.119999	541.962725	-472.223076	183.803782	470.982642	-469.685357	265.462796	533.363880	-445.769218	126.988657	326.224021	-463.217211	130.436347	327.510733	-376.217858	58.386360	356.156496	-417.619162	261.199826	125.029442	-411.911637	186.971870	151.219403	-474.338073	-184.530343	932.395619	-285.251360	-17.620381	80.238550	-485.402639	-17.456192	79.519709	-84.620200	
501	2.5050	814.846229	1376.998748	-105.370492	822.396377	1386.914435	-419.084032	825.223454	1457.012620	-269.068159	784.347392	1307.493050	-274.257403	586.044365	1157.545420	5.132438	707.912871	923.894210	-107.201454	642.891543	1172.374341	-543.679657	701.500966	901.094580	-473.192354	239.691962	1321.422022	-326.046957	414.369664	1259.124322	-452.340717	363.961454	1335.018834	-148.734223	430.019034	1208.929913	-393.746520	406.610406	1268.912022	-181.538728	269.515243	1367.981162	-289.027018	284.249623	1348.696195	-361.476304	321.091953	1292.879174	-124.680850	326.401290	1175.742557	-468.915379	418.532079	1157.189869	-103.021932	486.658261	1101.355889	-111.534933	519.304991	1022.802826	-113.017793	512.731953	1122.639529	-129.704709	589.272474	895.807350	-136.747903	569.151332	880.863260	-249.950153	499.303253	811.205612	-113.878029	451.329782	734.555365	-128.296241	372.998859	699.083388	-133.960532	474.628153	714.342864	-151.286805	270.586867	589.510561	-139.703832	291.103142	586.431343	-225.620383	192.667156	590.038781	-177.834331	458.295754	451.918525	-163.010193	388.029382	460.072120	-107.521027	322.206941	1091.530690	-479.521599	345.410684	1007.978575	-480.127110	380.121209	1008.678877	-469.842091	323.042683	921.821904	-484.096168	302.743933	750.815687	-469.229136	323.529680	716.068774	-360.955226	249.260079	628.679664	-491.002768	236.679510	544.260994	-471.959445	182.488724	473.880494	-469.653861	264.634391	535.454475	-445.271105	124.098234	329.649030	-462.964987	128.036560	330.343959	-375.848364	55.604673	360.053239	-417.506429	256.641807	127.100864	-411.865284	182.675670	154.189799	-474.259609	-184.327374	932.171529	-285.034864	-17.621211	80.267550	-485.396896	-17.443785	79.519530	-84.626137	
502	2.5100	814.807599	1375.180397	-104.549558	821.906868	1385.744158	-418.499884	825.288690	1455.623358	-267.945461	783.848844	1306.377307	-273.529751	582.784782	1157.904115	4.233978	707.699328	925.316371	-107.116295	642.299160	1171.917732	-543.812173	701.502749	900.966187	-473.491292	239.452512	1323.854881	-326.047109	414.054742	1260.705589	-451.942013	363.183141	1336.409320	-148.407335	429.470216	1210.277786	-393.520658	406.404271	1269.341012	-181.454049	269.302137	1370.060185	-289.151391	284.379239	1350.708672	-361.519985	320.399754	1294.660394	-124.737753	326.971712	1177.287655	-469.148387	417.780923	1158.630338	-103.884882	485.712089	1102.883921	-112.914588	518.527652	1024.246897	-115.015564	511.934392	1124.140789	-131.779965	588.679679	897.066187	-139.278251	567.301780	882.285520	-252.364213	499.657880	810.960859	-115.842511	452.628001	733.529115	-129.577205	374.988586	696.798032	-134.941655	476.289773	713.486878	-152.674415	273.901453	585.782728	-139.734844	294.907785	582.399838	-225.748804	195.925805	585.464046	-177.585737	462.619313	449.219035	-162.957557	392.414902	456.988518	-107.590429	323.925397	1092.885585	-479.719411	347.844507	1009.481404	-479.533057	382.201791	1010.430707	-468.128599	326.335048	923.107904	-484.078768	304.467726	752.373012	-469.278279	324.743408	717.672702	-361.088508	249.818017	630.730379	-490.711503	236.472658	546.457795	-471.816427	181.578522	476.823307	-469.952175	264.035670	537.670799	-444.955462	121.449372	333.042831	-463.012684	125.770588	333.364599	-375.852207	53.294639	364.188361	-417.748745	252.038823	129.139310	-411.627604	178.508772	157.071806	-474.074817	-184.348749	932.231328	-284.899249	-17.601373	80.315244	-485.444015	-17.440664	79.515381	-84.607869	
503	2.5150	814.573616	1373.312289	-103.725006	821.286067	1384.609384	-417.871590	825.483334	1454.048753	-267.710033	782.900713	1305.228674	-273.289124	579.598309	1158.152866	3.092483	707.411169	926.383334	-107.175019	641.545336	1171.583433	-544.090886	701.396426	900.923987	-473.757495	239.212317	1325.836263	-326.361795	413.604285	1262.225703	-451.588581	362.487485	1337.489898	-148.050981	428.941852	1211.613063	-393.405949	406.236288	1269.624442	-181.346017	269.096048	1371.897837	-289.324219	284.301727	1352.752513	-361.354597	319.659451	1296.137069	-124.838778	327.576773	1178.772432	-469.419109	417.118070	1159.978898	-104.747132	484.928406	1104.287693	-114.211578	517.738389	1025.674580	-116.714738	510.994764	1125.503230	-133.228190	588.120875	897.988273	-141.623236	565.695384	883.013087	-254.654539	499.958188	810.498797	-117.612668	453.955975	732.369629	-130.867028	376.863210	694.512310	-135.895371	477.842627	712.548008	-153.984404	277.052652	582.202606	-139.692554	297.514005	578.615897	-225.799303	199.223726	580.665967	-177.283698	467.071400	446.229443	-163.338023	396.758844	453.664304	-107.649347	325.708717	1094.059121	-479.932623	350.301346	1010.878877	-478.875834	384.310687	1012.098275	-466.472250	329.608353	924.295766	-483.969658	305.839043	754.038131	-469.399919	325.441305	719.514068	-360.719625	250.627347	632.938330	-490.506126	236.482725	548.694551	-471.820885	181.042370	479.419990	-470.266367	263.752450	539.597161	-444.602196	118.992676	336.500840	-463.142444	123.789878	336.517400	-376.055061	51.018499	368.358055	-418.166815	247.540457	131.312725	-411.380480	174.355446	160.036985	-473.952914	-184.353046	932.218679	-284.873059	-17.584975	80.228930	-485.390063	-17.432213	79.499463	-84.593235	
504	2.5200	814.205389	1371.420549	-102.860277	820.711244	1383.494079	-417.266140	825.659471	1452.524704	-267.737415	781.913577	1304.145328	-273.277906	576.640419	1158.322050	1.898029	707.042041	927.272163	-107.318240	640.710769	1171.285349	-544.399875	701.285534	901.009550	-474.072540	239.238105	1327.218992	-325.811993	413.134168	1263.676604	-451.344508	361.873940	1338.418628	-147.584654	428.310386	1212.732421	-393.335034	406.105460	1269.766815	-181.215441	268.786686	1373.510608	-289.380504	284.020708	1354.801408	-361.768884	319.050592	1297.379275	-124.800894	328.235976	1180.188981	-469.734764	416.594051	1161.200523	-105.498652	484.196534	1105.472977	-115.379712	516.928775	1026.885370	-118.257033	510.077547	1126.559357	-134.734051	587.466615	898.538694	-143.778480	563.999487	883.460180	-256.695470	500.191433	809.727027	-119.183541	455.224919	730.961898	-132.085078	378.686282	691.975138	-136.679379	479.383226	711.336326	-155.152013	280.176518	578.266502	-139.889169	300.445898	574.362857	-225.894125	202.414842	575.819355	-177.055354	471.346459	443.118753	-163.545566	400.972938	450.211041	-107.810023	327.602228	1095.215682	-480.219343	352.758694	1012.167952	-478.141175	386.382075	1013.769079	-464.943411	332.776817	925.461081	-483.657359	307.142173	755.736047	-469.492682	326.385118	720.861805	-360.499442	251.583728	635.104623	-490.284852	236.564089	550.928599	-471.781496	180.499061	482.097826	-470.530015	263.653677	541.553099	-444.301019	116.310693	340.146767	-463.309420	120.684394	340.440213	-376.114852	48.546666	372.605203	-418.470907	243.109738	133.929852	-411.301819	170.242718	163.219331	-473.817077	-184.299354	932.225952	-284.781131	-17.559935	80.050080	-485.275679	-17.426855	79.497088	-84.606530	
505	2.5250	813.728015	1369.517191	-102.079230	820.100607	1382.315068	-416.696057	825.260829	1451.340620	-266.270067	781.391603	1303.132515	-272.575748	573.612447	1158.213359	0.581871	706.740802	928.063628	-107.029405	639.855950	1171.080930	-544.697092	701.171058	901.092197	-474.368357	238.685731	1328.973179	-326.620485	412.441236	1265.013131	-451.118164	361.391825	1339.152543	-147.181510	427.647644	1213.890465	-393.538329	406.010633	1269.772273	-181.063136	268.475868	1374.897686	-289.335496	283.550430	1356.696277	-362.500198	318.570428	1298.372866	-124.632289	328.950151	1181.560405	-470.065581	416.144665	1162.230821	-106.098426	483.492898	1106.335770	-116.528157	516.503237	1027.551999	-120.316771	509.267398	1127.445678	-136.112713	586.680470	898.706648	-145.780278	562.180372	883.486454	-258.388694	500.379414	808.546745	-120.517691	456.430744	729.154712	-133.169497	380.469793	689.118078	-137.404351	480.783213	709.847063	-156.273587	283.419519	573.950351	-139.879181	303.380292	570.029845	-226.053950	205.532468	570.745120	-176.851525	475.438716	439.827706	-163.598044	404.902135	446.694096	-107.915453	329.524755	1096.235625	-480.553215	355.134753	1013.404005	-477.496313	388.418801	1015.190382	-463.391059	335.760683	926.581936	-483.100956	308.937984	757.665803	-469.893183	327.383137	722.260502	-360.320539	252.705499	637.200751	-490.303258	236.609127	553.193581	-471.683706	179.779910	484.996742	-470.621862	263.202193	543.770685	-443.982303	113.405973	344.045919	-463.349468	117.499841	344.498285	-376.115122	45.790961	376.949357	-418.602518	238.706542	136.946216	-411.239764	166.062756	166.731215	-473.813858	-184.280968	932.231599	-284.888161	-17.586884	80.137676	-485.396815	-17.433664	79.484860	-84.609225	
